# AST/ASF file generated using VICON BodyLanguage
# -----------------------------------------------
:version 1.10
:name VICON
:units
  mass 1.0
  length 0.45
  angle deg
:documentation
   .ast/.asf automatically generated from VICON data using
   VICON BodyBuilder and BodyLanguage model FoxedUp or BRILLIANT.MOD
:root
   order TX TY TZ RX RY RZ
   axis XYZ
   position 0 0 0  
   orientation 0 0 0 
:bonedata
  begin
     id 1 
     name lhipjoint
     direction 0.575328 -0.747301 0.332475 
     length 2.40933 
     axis 0 0 0  XYZ
  end
  begin
     id 2 
     name lfemur
     direction 0.34202 -0.939693 0  
     length 7.31453  
     axis 0 0 20  XYZ
    dof rx ry rz
    limits (-160.0 20.0)
           (-70.0 70.0)
           (-60.0 70.0)
  end
  begin
     id 3 
     name ltibia
     direction 0.34202 -0.939693 0   
     length 7.82185   
     axis 0 0 20   XYZ
    dof rx
    limits (-10.0 170.0)
  end
  begin
     id 4 
     name lfoot
     direction 0.0795993 -0.218697 0.972541   
     length 2.19173   
     axis -90 7.62852e-016 20   XYZ
    dof rx rz
    limits (-45.0 90.0)
           (-70.0 20.0)
  end
  begin
     id 5 
     name ltoes
     direction 1.53537e-011 -4.21894e-011 1   
     length 1.10023   
     axis -90 7.62852e-016 20   XYZ
    dof rx
    limits (-90.0 20.0)
  end
  begin
     id 6 
     name rhipjoint
     direction -0.513884 -0.783789 0.348708   
     length 2.29716  
     axis 0 0 0  XYZ 
  end
  begin
     id 7 
     name rfemur
     direction -0.34202 -0.939693 0   
     length 7.59573   
     axis 0 0 -20   XYZ
    dof rx ry rz
    limits (-160.0 20.0)
           (-70.0 70.0)
           (-70.0 60.0)
  end
  begin
     id 8 
     name rtibia
     direction -0.34202 -0.939693 0   
     length 7.66402   
     axis 0 0 -20   XYZ
    dof rx
    limits (-10.0 170.0)
 end
 begin
     id 9 
     name rfoot
     direction -0.137793 -0.378584 0.915253   
     length 2.27056  
     axis -90 -7.62852e-016 -20   XYZ
    dof rx rz
    limits (-45.0 90.0)
           (-20.0 70.0)
  end
  begin
     id 10 
     name rtoes
     direction -1.53493e-011 -4.22159e-011 1   
     length 1.11766   
     axis -90 -7.62852e-016 -20   XYZ
    dof rx
    limits (-90.0 20.0)
  end
  begin
     id 11 
     name lowerback
     direction -0.00732775 0.998356 -0.05685   
     length 2.16513   
     axis 0 0 0   XYZ
    dof rx ry rz
    limits (-20.0 45.0)
           (-30.0 30.0)
           (-30.0 30.0)
  end
  begin
     id 12 
     name upperback
     direction 0.0218081 0.999627 -0.0164647   
     length 2.16755   
     axis 0 0 0   XYZ
    dof rx ry rz
    limits (-20.0 45.0)
           (-30.0 30.0)
           (-30.0 30.0)
  end
  begin
     id 13 
     name thorax
     direction 0.02365 0.999661 0.0108914   
     length 2.16932   
     axis 0 0 0   XYZ
    dof rx ry rz
    limits (-20.0 45.0)
           (-30.0 30.0)
           (-30.0 30.0)
  end
  begin
     id 14 
     name lowerneck
     direction -0.0523929 0.978385 0.200044   
     length 1.63877   
     axis 0 0 0   XYZ
    dof rx ry rz
    limits (-20.0 45.0)
           (-30.0 30.0)
           (-30.0 30.0)
  end
  begin
     id 15 
     name upperneck
     direction 0.0448674 0.981321 -0.187074   
     length 1.69014   
     axis 0 0 0   XYZ
    dof rx ry rz
    limits (-20.0 45.0)
           (-30.0 30.0)
           (-30.0 30.0)
  end
  begin
     id 16
     name head
     direction 0.0199089 0.996118 -0.0857429  
     length 1.70094  
     axis 0 0 0   XYZ
    dof rx ry rz
    limits (-20.0 45.0)
           (-30.0 30.0)
           (-30.0 30.0)
  end
  begin
     id 17 
     name lclavicle
     direction 0.940366 0.30191 -0.156722  
     length 3.37521  
     axis 0 0 0   XYZ
    dof ry rz
    limits (-20.0 10.0)
           (0.0 20.0)
  end
  begin
     id 18 
     name lhumerus
     direction 1 -4.4897e-011 -1.7911e-027   
     length 5.25287   
     axis 180 -30 -90   XYZ
    dof rx ry rz
    limits (-60.0 90.0)
           (-90.0 90.0)
           (-90.0 90.0)
  end
  begin
     id 19
     name lradius
     direction 1 -4.48951e-011 1.04424e-027   
     length 3.51014   
     axis 180 -30 -90   XYZ
    dof rx
    limits (-10.0 170.0)
  end
  begin
     id 20
     name lwrist
     direction 1 -4.48997e-011 -9.5942e-028   
     length 1.75507   
     axis 8.48502e-016 90 90   XYZ
    dof ry
    limits (-180.0 0.0)
 end
  begin
     id 21 
     name lhand
     direction 1 -4.48831e-011 -1.90777e-027   
     length 0.706179   
     axis 1.22306e-015 90 90   XYZ
    dof rx rz
    limits (-90.0 90.0)
           (-45.0 45.0)
  end
  begin
     id 22 
     name lfingers
     direction 1 -4.49108e-011 -3.85244e-027   
     length 0.569339   
     axis 2.44611e-015 90 90   XYZ
    dof rx
    limits (0.0 90.0)
  end
  begin
     id 23
     name lthumb
     direction 0.707107 -6.34953e-011 0.707107   
     length 0.817461   
     axis -90 45 -1.62303e-014   XYZ
    dof rx rz
    limits (-45.0 45.0)
           (-45.0 45.0)
  end
  begin
     id 24 
     name rclavicle
     direction -0.905329 0.382405 -0.184787   
     length 3.30787  
     axis 0 0 0   XYZ 
    dof ry rz
    limits (-10.0 20.0)
           (-20.0 0.0)
  end
  begin
     id 25 
     name rhumerus
     direction -1 -4.48953e-011 -9.15316e-029  
     length 5.28721   
     axis 180 30 90   XYZ
    dof rx ry rz
    limits (-90.0 60.0)
           (-90.0 90.0)
           (-90.0 90.0)
  end
  begin
     id 26 
     name rradius
     direction -1 -4.48987e-011 9.37824e-028   
     length 3.50544   
     axis 180 30 90   XYZ
    dof rx
    limits (-10.0 170.0)
  end
  begin
     id 27 
     name rwrist
     direction -1 -4.48967e-011 -9.58414e-028   
     length 1.75272   
     axis 8.48502e-016 -90 -90   XYZ
    dof ry
    limits (-180.0 0.0)
  end
  begin
     id 28
     name rhand
     direction -1 -4.48904e-011 -1.91266e-027   
     length 0.884996   
     axis 1.22306e-015 -90 -90   XYZ
    dof rx rz
    limits (-90.0 90.0)
           (-45.0 45.0)
  end
  begin
     id 29
     name rfingers
     direction -1 -4.4909e-011 -3.85015e-027   
     length 0.713507   
     axis 2.44611e-015 -90 -90   XYZ
    dof rx
    limits (0.0 90.0)
  end
  begin
     id 30
     name rthumb
     direction -0.707107 -6.34853e-011 0.707107   
     length 1.02446   
     axis -90 -45 1.62303e-014   XYZ
    dof rx rz
    limits (-45.0 45.0)
           (-45.0 45.0)
  end
:hierarchy
  begin
    root lhipjoint rhipjoint lowerback
    lhipjoint lfemur
    lfemur ltibia
    ltibia lfoot
    lfoot ltoes
    rhipjoint rfemur
    rfemur rtibia
    rtibia rfoot
    rfoot rtoes
    lowerback upperback
    upperback thorax
    thorax lowerneck lclavicle rclavicle
    lowerneck upperneck
    upperneck head
    lclavicle lhumerus
    lhumerus lradius
    lradius lwrist
    lwrist lhand lthumb
    lhand lfingers
    rclavicle rhumerus
    rhumerus rradius
    rradius rwrist
    rwrist rhand rthumb
    rhand rfingers
  end

#!OML:ASF F:\twosubjects\two\Thursday\Session 1\justin.ASF
:FULLY-SPECIFIED
:DEGREES
176
root 7.30228 18.1893 2.13368 -171.977 -16.4645 -179.789
lowerback -3.131 1.94737 -2.86175
upperback 3.10735 2.74345 -1.46467
thorax 4.90675 1.25245 0.28299
lowerneck -11.7314 -10.9207 -17.8029
upperneck 22.3795 -14.1944 7.48782
head 11.0052 -7.45097 3.50803
rclavicle 7.32522e-014 -7.95139e-015
rhumerus 38.8732 -12.3795 -68.4034
rradius 53.5277
rwrist 5.31609
rhand -24.9642 24.7869
rfingers 7.12502
rthumb 1.54618 -5.18721
lclavicle 7.32522e-014 -7.95139e-015
lhumerus -31.2993 6.52524 79.6026
lradius 32.1651
lwrist -2.42173
lhand -2.62226 38.6395
lfingers 7.12502
lthumb 23.0764 67.2778
rfemur -13.9351 -9.66346 15.6325
rtibia 30.5572
rfoot -19.7749 -16.868
rtoes -9.34584
lfemur -10.9842 5.42694 -21.6239
ltibia 18.5861
lfoot -13.2579 -4.13984
ltoes 1.59863
177
root 7.30312 18.1885 2.13609 -172.136 -16.5483 -179.582
lowerback -3.04843 1.93109 -2.62883
upperback 3.0795 2.70616 -1.40716
thorax 4.83879 1.24395 0.206722
lowerneck -11.5619 -10.8805 -17.8361
upperneck 22.4291 -14.1937 7.522
head 10.9964 -7.46149 3.53352
rclavicle -1.5207e-014 2.46493e-014
rhumerus 38.7745 -12.3355 -68.4359
rradius 53.5217
rwrist 5.32802
rhand -25.0996 24.8539
rfingers 7.12502
rthumb 1.41535 -5.12115
lclavicle -1.5207e-014 2.46493e-014
lhumerus -31.2729 6.25801 79.6484
lradius 32.7384
lwrist -2.19438
lhand -2.43126 38.6522
lfingers 7.12502
lthumb 23.2597 67.2674
rfemur -13.7622 -9.68385 15.8465
rtibia 30.4466
rfoot -19.6827 -16.9486
rtoes -9.03355
lfemur -10.9457 5.40473 -21.3956
ltibia 18.6964
lfoot -13.2923 -4.20798
ltoes 1.21127
178
root 7.30415 18.1867 2.13892 -172.231 -16.6623 -179.42
lowerback -3.04988 1.92446 -2.38409
upperback 3.20247 2.68434 -1.38741
thorax 4.97837 1.23799 0.0914027
lowerneck -11.8943 -10.966 -17.7949
upperneck 22.5206 -14.2592 7.53932
head 11.1014 -7.47189 3.50461
rclavicle -3.49861e-014 7.39479e-014
rhumerus 38.9876 -12.4756 -68.5413
rradius 53.4742
rwrist 5.32198
rhand -25.4568 25.077
rfingers 7.12502
rthumb 1.0704 -4.90003
lclavicle -3.49861e-014 7.39479e-014
lhumerus -30.8721 6.05154 79.6965
lradius 33.2216
lwrist -2.06642
lhand -2.31296 38.3751
lfingers 7.12502
lthumb 23.3732 66.9759
rfemur -13.6775 -9.79057 16.0116
rtibia 30.3838
rfoot -19.6862 -17.0576
rtoes -8.62689
lfemur -10.9221 5.34641 -21.2142
ltibia 18.7312
lfoot -13.2621 -4.24488
ltoes 1.05805
179
root 7.30501 18.1887 2.14008 -172.207 -16.6803 -179.47
lowerback -3.05672 1.97605 -2.32337
upperback 3.33489 2.75054 -1.47767
thorax 5.12712 1.26916 -0.0286858
lowerneck -12.4961 -11.1057 -17.6777
upperneck 22.7569 -14.3685 7.52826
head 11.31 -7.49033 3.43149
rclavicle -5.34731e-014 1.19271e-014
rhumerus 39.1845 -12.7435 -68.6359
rradius 53.4688
rwrist 5.32579
rhand -26.2557 25.2655
rfingers 7.12502
rthumb 0.29876 -4.71401
lclavicle -5.34731e-014 1.19271e-014
lhumerus -30.3278 5.64106 79.7064
lradius 33.6444
lwrist -1.76824
lhand -2.36437 37.7562
lfingers 7.12502
lthumb 23.3239 66.3632
rfemur -13.7056 -9.85993 15.9488
rtibia 30.3963
rfoot -19.7059 -16.9127
rtoes -8.48431
lfemur -10.8949 5.35922 -21.271
ltibia 18.6514
lfoot -13.2197 -4.26568
ltoes 0.9519
180
root 7.30777 18.1885 2.14162 -172.122 -16.6123 -179.782
lowerback -3.01809 2.00489 -2.6337
upperback 3.34792 2.80304 -1.56243
thorax 5.10814 1.28292 0.0588609
lowerneck -12.7687 -11.1456 -17.6415
upperneck 22.9571 -14.3739 7.42649
head 11.4274 -7.49455 3.3726
rclavicle -3.83654e-014 1.27222e-014
rhumerus 39.1573 -12.7553 -68.5864
rradius 53.4832
rwrist 5.48071
rhand -26.0607 25.0664
rfingers 7.12502
rthumb 0.487074 -4.91275
lclavicle -3.83654e-014 1.27222e-014
lhumerus -30.0497 5.4057 79.7271
lradius 34.1039
lwrist -1.4444
lhand -2.51362 37.2899
lfingers 7.12502
lthumb 23.1807 65.915
rfemur -13.7561 -9.82089 15.6138
rtibia 30.4708
rfoot -19.6615 -16.8165
rtoes -8.70315
lfemur -10.8199 5.34274 -21.5959
ltibia 18.5134
lfoot -13.1492 -4.27299
ltoes 1.34714
181
root 7.31247 18.1868 2.14482 -172.011 -16.5854 -180.087
lowerback -3.00792 1.98339 -3.02264
upperback 3.2371 2.79318 -1.58837
thorax 4.97021 1.26704 0.245534
lowerneck -12.4802 -11.064 -17.607
upperneck 22.9511 -14.2979 7.26869
head 11.3427 -7.48987 3.33842
rclavicle -8.68689e-014 -7.95139e-016
rhumerus 38.9882 -12.6327 -68.5213
rradius 53.4587
rwrist 5.60053
rhand -25.3822 24.7223
rfingers 7.12502
rthumb 1.14242 -5.25434
lclavicle -8.68689e-014 -7.95139e-016
lhumerus -30.1712 5.24001 79.798
lradius 34.7629
lwrist -1.1935
lhand -2.95573 37.5696
lfingers 7.12502
lthumb 22.7565 66.2475
rfemur -13.8293 -9.80192 15.3035
rtibia 30.5525
rfoot -19.6159 -16.9473
rtoes -8.91391
lfemur -10.7886 5.31665 -21.9038
ltibia 18.3907
lfoot -13.108 -4.34669
ltoes 1.95663
182
root 7.31396 18.187 2.14869 -172.063 -16.6528 -179.994
lowerback -2.94027 2.02171 -2.91054
upperback 3.15976 2.83641 -1.5939
thorax 4.85513 1.29633 0.176643
lowerneck -12.2295 -11.0249 -17.4616
upperneck 22.9601 -14.3271 7.21455
head 11.2841 -7.51059 3.30496
rclavicle 6.37105e-014 4.8901e-014
rhumerus 38.7413 -12.7649 -68.4471
rradius 53.3931
rwrist 5.47767
rhand -25.372 24.5967
rfingers 7.12502
rthumb 1.15229 -5.37998
lclavicle 6.37105e-014 4.8901e-014
lhumerus -30.2238 4.80695 79.8401
lradius 35.411
lwrist -0.95788
lhand -3.43529 38.0313
lfingers 7.12502
lthumb 22.2962 66.765
rfemur -13.7958 -9.85047 15.4067
rtibia 30.5908
rfoot -19.5055 -17.0237
rtoes -9.48
lfemur -10.7445 5.30614 -21.7937
ltibia 18.3346
lfoot -13.0849 -4.37387
ltoes 1.88065
183
root 7.31194 18.1858 2.15268 -172.222 -16.7487 -179.742
lowerback -2.88364 2.06233 -2.54819
upperback 3.20122 2.87126 -1.58156
thorax 4.88174 1.32629 -0.0112311
lowerneck -12.2958 -11.0157 -17.3993
upperneck 23.0286 -14.3297 7.2419
head 11.3196 -7.5034 3.30163
rclavicle 6.03311e-014 -2.34566e-014
rhumerus 38.6207 -12.8792 -68.3713
rradius 53.3878
rwrist 5.48632
rhand -25.4726 24.2664
rfingers 7.12502
rthumb 1.05514 -5.7107
lclavicle 6.03311e-014 -2.34566e-014
lhumerus -29.9799 4.42559 79.8642
lradius 35.8477
lwrist -0.632888
lhand -3.81372 37.9739
lfingers 7.12502
lthumb 21.9328 66.7507
rfemur -13.6705 -9.91454 15.6537
rtibia 30.5764
rfoot -19.5039 -16.9907
rtoes -9.63921
lfemur -10.6901 5.24117 -21.5244
ltibia 18.3856
lfoot -13.0227 -4.28725
ltoes 1.37543
184
root 7.31261 18.185 2.15679 -172.315 -16.8382 -179.628
lowerback -2.83844 2.07269 -2.3741
upperback 3.24231 2.87453 -1.55898
thorax 4.9059 1.33329 -0.0855648
lowerneck -12.4088 -10.9822 -17.3361
upperneck 23.0757 -14.2537 7.16423
head 11.3367 -7.46878 3.27206
rclavicle 5.45664e-014 9.54166e-015
rhumerus 38.6162 -12.9139 -68.3119
rradius 53.4325
rwrist 5.83793
rhand -27.4361 24.5641
rfingers 7.12502
rthumb -0.841289 -5.41394
lclavicle 5.45664e-014 9.54166e-015
lhumerus -29.6719 4.0907 79.9332
lradius 36.1919
lwrist -0.253884
lhand -4.4003 38.1441
lfingers 7.12502
lthumb 21.3695 66.9858
rfemur -13.6014 -9.99261 15.7687
rtibia 30.5307
rfoot -19.5679 -17.0236
rtoes -9.00197
lfemur -10.7189 5.24896 -21.3996
ltibia 18.5248
lfoot -13.0219 -4.35365
ltoes 1.42515
185
root 7.31579 18.1856 2.16096 -172.322 -16.8701 -179.616
lowerback -2.79714 2.08411 -2.38419
upperback 3.23914 2.88802 -1.53073
thorax 4.87687 1.33971 -0.0514859
lowerneck -12.5129 -10.9586 -17.2146
upperneck 23.1433 -14.1897 7.00041
head 11.3496 -7.4453 3.20052
rclavicle 1.48095e-014 5.64548e-014
rhumerus 38.5076 -12.866 -68.1096
rradius 53.3534
rwrist 6.29757
rhand -25.4813 23.0234
rfingers 7.12502
rthumb 1.04669 -6.95374
lclavicle 1.48095e-014 5.64548e-014
lhumerus -29.4117 3.88017 79.9795
lradius 36.5324
lwrist -0.00541722
lhand -4.42803 38.6542
lfingers 7.12502
lthumb 21.3429 67.4989
rfemur -13.6048 -10.0227 15.7903
rtibia 30.493
rfoot -19.4211 -17.03
rtoes -8.87062
lfemur -10.8008 5.32042 -21.3848
ltibia 18.6431
lfoot -13.0888 -4.48169
ltoes 2.10602
186
root 7.3181 18.1857 2.16598 -172.29 -16.9122 -179.696
lowerback -2.75617 2.05427 -2.45404
upperback 3.22916 2.84947 -1.53752
thorax 4.84071 1.31844 -0.0239808
lowerneck -12.5644 -10.948 -17.2256
upperneck 23.185 -14.1581 6.96648
head 11.3692 -7.43507 3.1925
rclavicle 2.34566e-014 -1.19271e-015
rhumerus 38.4376 -12.7691 -68.035
rradius 53.3208
rwrist 6.35132
rhand -24.8327 22.6535
rfingers 7.12502
rthumb 1.67315 -7.31969
lclavicle 2.34566e-014 -1.19271e-015
lhumerus -29.239 3.92422 79.9206
lradius 36.9615
lwrist 0.0619518
lhand -3.86646 38.2576
lfingers 7.12502
lthumb 21.8822 67.0402
rfemur -13.604 -9.95388 15.7151
rtibia 30.4757
rfoot -19.2679 -17.0697
rtoes -9.29767
lfemur -10.854 5.34209 -21.4747
ltibia 18.6715
lfoot -13.0849 -4.52787
ltoes 2.14357
187
root 7.31795 18.1871 2.17114 -172.242 -16.9643 -179.816
lowerback -2.73994 2.02303 -2.53978
upperback 3.1957 2.81131 -1.55781
thorax 4.79416 1.29759 -0.000943992
lowerneck -12.5356 -10.9082 -17.2383
upperneck 23.214 -14.0963 6.91034
head 11.3628 -7.41761 3.18631
rclavicle -2.44505e-014 1.59028e-015
rhumerus 38.3777 -12.7316 -68.0186
rradius 53.4143
rwrist 6.12783
rhand -24.5956 22.4892
rfingers 7.12502
rthumb 1.90213 -7.48211
lclavicle -2.44505e-014 1.59028e-015
lhumerus -29.1974 3.95599 79.8796
lradius 37.4831
lwrist 0.0448278
lhand -3.57095 37.5323
lfingers 7.12502
lthumb 22.1659 66.2815
rfemur -13.6124 -9.88398 15.5835
rtibia 30.482
rfoot -19.378 -17.1621
rtoes -9.1249
lfemur -10.8894 5.49461 -21.6156
ltibia 18.6521
lfoot -13.142 -4.69582
ltoes 1.68714
188
root 7.31658 18.1894 2.17514 -172.201 -16.9813 -179.86
lowerback -2.76302 2.02397 -2.58996
upperback 3.12555 2.81647 -1.54595
thorax 4.73103 1.30066 0.0392764
lowerneck -12.465 -10.8565 -17.1533
upperneck 23.3115 -14.0381 6.75584
head 11.3582 -7.40972 3.13072
rclavicle -2.48481e-015 3.57812e-015
rhumerus 38.0946 -12.5988 -67.6892
rradius 53.4552
rwrist 6.02702
rhand -24.8299 22.2749
rfingers 7.12502
rthumb 1.67586 -7.69828
lclavicle -2.48481e-015 3.57812e-015
lhumerus -29.1966 3.84146 79.9076
lradius 37.8938
lwrist 0.093216
lhand -3.50249 37.1731
lfingers 7.12502
lthumb 22.2316 65.9145
rfemur -13.6641 -10.0319 15.5244
rtibia 30.4991
rfoot -19.4621 -17.0474
rtoes -8.77386
lfemur -10.9205 5.53629 -21.6708
ltibia 18.6391
lfoot -13.236 -4.80082
ltoes 1.99838
189
root 7.31782 18.1882 2.17969 -172.22 -16.9872 -179.828
lowerback -2.73094 2.01745 -2.57685
upperback 3.0743 2.80583 -1.51953
thorax 4.65868 1.29772 0.0564952
lowerneck -12.3935 -10.8021 -17.1469
upperneck 23.3803 -13.9827 6.71296
head 11.3588 -7.39664 3.12707
rclavicle -1.42131e-014 1.39149e-014
rhumerus 37.8862 -12.4402 -67.4509
rradius 53.4665
rwrist 5.95365
rhand -24.9368 21.9949
rfingers 7.12502
rthumb 1.5726 -7.97908
lclavicle -1.42131e-014 1.39149e-014
lhumerus -29.1496 3.74583 79.9072
lradius 38.2164
lwrist 0.200667
lhand -3.58569 37.2919
lfingers 7.12502
lthumb 22.1518 66.0427
rfemur -13.7009 -10.2007 15.5667
rtibia 30.5105
rfoot -19.4192 -16.9173
rtoes -9.55992
lfemur -10.8964 5.23269 -21.6268
ltibia 18.612
lfoot -13.1151 -4.57272
ltoes 2.33871
